<?xml version="1.0" standalone="no"?>
<!DOCTYPE svg PUBLIC "-//W3C//DTD SVG 20010904//EN"
 "http://www.w3.org/TR/2001/REC-SVG-20010904/DTD/svg10.dtd">
<svg version="1.0" xmlns="http://www.w3.org/2000/svg"
 width="1600.000000pt" height="1600.000000pt" viewBox="0 0 1600.000000 1600.000000"
 preserveAspectRatio="xMidYMid meet">
<metadata>
Created by potrace 1.14, written by Peter Selinger 2001-2017
</metadata>
<g transform="translate(0.000000,1600.000000) scale(0.100000,-0.100000)"
fill="#000000" stroke="none">
<path d="M8620 14689 c-19 -4 -57 -10 -85 -13 -27 -3 -72 -10 -100 -15 -27 -6
-61 -13 -75 -15 -48 -9 -82 -17 -149 -32 -36 -9 -73 -17 -81 -19 -54 -12 -237
-72 -313 -102 -86 -34 -135 -58 -217 -106 -44 -26 -206 -147 -240 -178 -14
-13 -43 -37 -65 -54 -80 -59 -274 -258 -286 -294 -2 -5 -53 -21 -114 -35 -107
-24 -244 -58 -355 -89 -178 -50 -569 -191 -730 -264 -87 -40 -382 -186 -445
-221 -38 -21 -98 -54 -132 -72 -35 -19 -63 -37 -63 -42 0 -4 -4 -8 -9 -8 -19
0 -263 -156 -269 -172 -2 -4 -8 -8 -14 -8 -10 0 -79 -47 -182 -125 -29 -22
-66 -49 -81 -60 -15 -11 -64 -50 -109 -86 -134 -108 -118 -94 -260 -219 -126
-111 -475 -471 -548 -564 -12 -16 -33 -41 -45 -54 -23 -25 -171 -214 -208
-266 -11 -16 -25 -33 -31 -40 -10 -11 -179 -261 -199 -294 -5 -9 -18 -29 -27
-43 -41 -63 -187 -319 -181 -319 3 0 -1 -8 -9 -17 -18 -21 -118 -218 -173
-343 -20 -47 -48 -108 -61 -137 -13 -28 -24 -58 -24 -65 0 -8 -4 -18 -9 -23
-21 -23 -181 -489 -221 -644 -11 -46 -19 -90 -16 -98 3 -8 1 -11 -4 -8 -6 3
-10 4 -10 2 0 -2 -20 -96 -44 -208 -24 -112 -49 -240 -56 -284 -7 -44 -14 -89
-16 -100 -2 -10 -6 -49 -9 -85 -4 -36 -8 -72 -10 -80 -9 -34 -23 -187 -32
-360 -13 -236 -7 -627 11 -819 3 -24 7 -74 11 -110 10 -106 26 -228 45 -341 5
-30 12 -73 16 -95 3 -22 7 -42 9 -45 2 -3 6 -26 10 -50 3 -25 17 -90 30 -145
13 -55 26 -111 29 -125 10 -53 105 -385 123 -430 39 -99 85 -240 85 -257 0
-13 5 -23 12 -23 8 0 8 -2 -1 -8 -18 -12 -33 -88 -19 -103 8 -9 8 -10 0 -6
-11 7 -16 -16 -29 -138 -13 -119 -13 -150 -2 -164 9 -11 9 -13 1 -8 -8 5 -11
-6 -9 -36 9 -136 17 -208 25 -252 6 -27 12 -60 15 -73 2 -13 7 -32 10 -42 3
-10 7 -27 9 -37 2 -11 11 -48 20 -84 16 -68 19 -175 5 -223 -5 -16 -11 -48
-14 -70 -3 -23 -8 -54 -11 -70 -5 -22 -3 -27 7 -21 10 6 11 5 3 -4 -6 -7 -7
-32 -3 -69 4 -31 8 -65 8 -75 1 -10 5 -15 11 -12 5 3 7 0 5 -7 -3 -7 5 -56 19
-108 18 -72 24 -122 24 -210 0 -63 7 -153 16 -199 9 -46 16 -85 16 -88 0 -2 4
-1 10 2 6 3 7 -1 4 -10 -8 -20 26 -136 37 -129 5 3 6 -2 3 -10 -9 -23 25 -118
39 -110 9 5 9 4 1 -5 -7 -8 -4 -32 13 -83 23 -70 30 -97 40 -150 3 -15 8 -26
12 -24 3 2 6 -8 7 -22 0 -15 4 -43 8 -62 23 -108 32 -190 34 -305 2 -76 8
-132 14 -136 7 -4 6 -8 -1 -10 -8 -3 0 -40 25 -116 22 -67 41 -110 47 -106 6
3 7 1 3 -6 -4 -6 4 -44 18 -84 15 -39 32 -112 39 -162 7 -49 15 -84 18 -78 2
7 4 -15 5 -50 0 -93 14 -191 27 -199 8 -5 8 -8 1 -8 -7 0 -9 -10 -6 -25 2 -15
9 -22 16 -18 8 4 8 2 -1 -7 -7 -8 -8 -22 -2 -43 5 -18 9 -45 9 -60 0 -16 4
-26 9 -23 5 4 7 -2 4 -12 -6 -25 45 -251 63 -280 18 -28 74 -63 87 -55 6 3 7
2 4 -4 -13 -20 218 -93 244 -77 7 4 9 3 6 -3 -4 -6 18 -16 56 -23 34 -7 67
-14 72 -16 6 -1 27 -5 49 -8 21 -3 42 -9 47 -12 5 -3 9 1 9 8 0 9 2 10 8 1 13
-20 202 -38 202 -19 0 8 2 8 8 0 10 -15 106 -19 97 -4 -5 9 -2 9 11 3 20 -10
117 -5 110 6 -2 3 24 6 57 7 54 1 122 7 207 18 45 5 69 17 74 34 6 21 27 129
28 139 0 5 4 14 10 21 8 9 14 9 24 1 8 -6 21 -9 29 -5 9 3 14 2 11 -3 -3 -5
42 -16 101 -25 59 -9 109 -19 112 -21 2 -3 10 0 18 6 7 7 13 7 13 2 0 -6 35
-11 77 -12 42 -1 80 -4 84 -7 4 -2 11 0 14 6 4 7 11 8 18 1 13 -10 59 -7 78 5
8 4 9 3 5 -5 -6 -9 15 -11 82 -8 49 2 93 7 99 10 6 4 12 4 15 2 3 -3 129 -6
281 -7 151 -1 274 -5 271 -9 -7 -11 76 -15 88 -4 8 7 9 6 4 -2 -5 -9 0 -13 16
-14 13 0 32 -2 43 -4 11 -3 47 -6 80 -7 33 -2 63 -7 67 -12 4 -6 14 -4 24 5
11 9 15 9 10 2 -8 -14 5 -15 166 -17 47 -1 84 -5 81 -9 -7 -12 31 -4 39 8 5 6
8 5 8 -2 0 -7 9 -13 21 -13 13 0 18 4 13 13 -6 9 -5 9 7 0 15 -12 76 -15 292
-14 100 1 127 4 121 14 -5 7 -1 7 10 -2 15 -13 19 -13 27 0 6 9 9 10 9 2 0 -7
6 -10 13 -8 15 6 97 13 155 14 24 1 41 4 39 9 -3 4 18 7 46 7 92 1 322 27 336
39 12 9 13 8 7 -3 -7 -10 -4 -12 12 -7 11 4 41 7 66 8 28 0 43 4 39 11 -4 6
-1 7 8 1 18 -11 170 -5 185 7 6 5 15 4 23 -4 9 -9 14 -9 21 3 7 11 10 11 10 2
0 -9 5 -10 18 -3 13 7 23 6 30 -1 9 -9 12 -9 12 1 0 7 5 9 11 5 7 -4 84 -6
173 -4 89 2 187 3 218 3 41 -1 56 3 51 11 -3 6 -1 6 8 -1 17 -16 43 -17 33 -1
-5 7 -3 8 7 2 20 -12 61 -12 78 0 12 9 13 8 6 -3 -6 -11 -4 -13 8 -8 9 3 138
7 287 8 189 1 270 5 270 13 0 7 3 7 8 1 11 -15 66 -20 57 -5 -4 7 4 5 18 -4
20 -13 26 -14 30 -4 4 11 6 11 6 0 1 -7 5 -11 10 -8 4 3 56 6 114 7 60 1 104
5 101 10 -3 5 0 9 5 9 6 0 11 -3 11 -7 0 -5 55 -7 122 -6 68 1 214 3 326 3
160 0 202 3 196 13 -6 9 -4 9 7 1 15 -12 120 -11 140 2 8 4 9 3 5 -4 -4 -8 4
-10 26 -7 41 6 434 7 468 1 14 -2 67 -7 119 -11 52 -4 101 -9 109 -13 11 -4
13 -2 7 9 -7 11 -6 12 6 3 23 -18 75 -24 89 -11 10 9 11 9 6 0 -7 -13 73 -29
99 -19 9 3 14 2 11 -3 -7 -11 89 -25 105 -15 7 4 9 3 6 -4 -8 -12 86 -27 104
-16 7 4 9 3 6 -3 -4 -6 9 -13 31 -17 61 -11 155 -21 194 -21 20 0 34 -3 31 -7
-2 -5 11 -9 29 -9 58 -2 101 -9 112 -18 6 -5 20 -5 31 0 11 4 14 8 6 8 -11 1
-11 4 -1 16 6 8 8 20 4 26 -4 7 -3 9 2 6 6 -3 25 21 43 54 18 32 29 59 24 59
-4 0 -3 4 3 8 17 11 44 73 37 85 -3 5 -2 7 3 4 10 -6 81 120 76 136 -1 5 1 6
6 3 5 -3 14 6 20 20 13 27 14 29 67 89 19 22 35 46 35 53 0 7 4 11 9 8 5 -3
17 7 27 22 10 15 24 33 31 40 7 8 10 18 7 24 -4 7 -2 8 4 4 11 -6 48 50 44 67
-1 4 2 7 7 7 12 0 57 142 52 163 -2 10 31 58 65 94 13 14 24 30 24 35 0 6 6
24 14 41 31 71 67 188 60 198 -4 7 -3 9 4 5 13 -8 27 48 16 65 -4 7 -3 9 3 6
7 -5 15 15 21 51 7 38 7 59 0 63 -7 4 -7 8 0 10 12 5 19 90 8 107 -4 7 -4 12
1 12 8 0 8 150 0 252 -2 26 0 45 3 43 11 -7 102 94 95 105 -3 6 -1 10 4 10 6
0 11 16 11 35 0 21 -5 35 -12 35 -10 0 -9 3 1 9 8 6 12 20 9 39 -2 17 -1 29 3
26 11 -7 81 105 73 118 -4 6 -3 8 3 5 11 -7 32 38 43 88 1 6 6 16 12 22 6 7 8
20 4 28 -3 9 -2 14 2 11 11 -7 35 90 26 105 -4 8 -3 9 4 5 18 -11 15 88 -4
154 -8 30 -20 73 -26 95 -6 22 -16 43 -22 47 -7 5 -7 8 2 8 7 0 11 4 8 8 -3 5
22 21 54 36 34 16 57 33 53 39 -3 5 -1 7 4 4 14 -9 65 32 57 45 -4 7 -2 8 4 4
15 -9 68 98 86 174 16 66 19 52 -52 180 -17 30 -33 66 -36 80 -14 66 -32 121
-38 115 -4 -4 -4 3 -1 16 4 12 2 20 -3 17 -5 -4 -9 13 -8 35 0 30 10 57 36 97
34 53 46 74 131 225 58 104 257 515 257 531 0 3 7 21 15 40 8 19 22 49 30 68
31 69 150 407 159 451 6 25 30 103 42 138 8 20 11 37 9 37 -3 0 -1 8 4 18 5 9
11 31 14 47 3 17 11 46 17 65 6 19 13 51 16 70 3 19 9 46 13 60 10 29 30 121
35 167 3 18 7 40 10 50 3 10 7 34 10 53 3 19 8 44 10 56 2 12 7 45 11 75 3 30
8 61 10 69 2 8 7 40 10 70 3 30 8 71 11 91 19 148 36 436 36 644 0 143 -9 394
-18 475 -3 25 -7 68 -9 95 -2 28 -6 66 -9 85 -11 84 -20 176 -18 183 1 4 -1 7
-5 7 -5 0 -8 12 -8 28 -1 31 -10 92 -26 177 -6 33 -13 71 -15 85 -4 27 -47
221 -64 285 -6 22 -13 51 -16 65 -3 14 -12 48 -20 75 -9 28 -18 61 -20 75 -9
45 -131 403 -172 505 -89 219 -134 321 -209 470 -40 81 -111 214 -140 265 -11
19 -44 75 -73 125 -80 139 -296 461 -337 503 -7 7 -13 16 -13 20 0 4 -14 21
-30 39 -17 18 -30 35 -30 38 0 9 -224 276 -306 364 -148 160 -394 397 -504
487 -19 16 -39 34 -45 40 -5 6 -55 46 -110 90 -55 43 -104 83 -110 87 -33 26
-168 125 -210 153 -107 73 -244 161 -300 194 -33 19 -73 50 -90 69 -116 131
-175 173 -310 218 -197 67 -185 60 -186 107 0 22 -2 49 -4 58 -4 23 11 27 106
24 57 -2 108 -11 159 -29 88 -29 104 -29 28 1 -103 41 -199 56 -265 41 l-32
-7 -5 52 c-3 28 -8 86 -10 128 -3 43 -14 108 -24 145 -11 37 -20 75 -19 83 1
36 -28 131 -61 199 -60 124 -181 229 -315 275 -61 20 -97 27 -182 31 -41 2
-100 14 -143 29 -72 25 -341 90 -417 101 -22 3 -62 10 -90 15 -62 12 -96 17
-160 26 -27 3 -59 8 -70 11 -36 8 -459 11 -495 2z m1520 -230 c144 -50 277
-166 344 -303 20 -41 38 -82 41 -93 2 -10 7 -27 10 -38 l8 -20 -16 20 c-9 11
-17 24 -17 29 0 17 -89 132 -131 171 -24 23 -69 57 -99 76 -139 89 -193 123
-252 155 l-63 35 55 -4 c30 -3 84 -15 120 -28z m-2926 -441 c-73 -121 -96
-147 -130 -154 -19 -3 -37 -4 -39 -2 -7 7 159 168 172 168 2 0 1 -6 -3 -12z
m-2599 -10683 c-4 -114 -14 -207 -21 -214 -2 -2 2 -11 8 -20 7 -9 8 -13 4 -9
-5 4 -15 0 -23 -10 -11 -14 -12 -14 -8 -1 3 9 -1 36 -10 60 -9 24 -17 49 -18
54 -2 6 -5 15 -9 20 -9 15 -2 103 12 155 15 56 18 70 19 93 1 17 2 17 26 0 24
-18 25 -20 20 -128z m6307 -447 c9 -80 -2 -598 -12 -598 -5 0 -12 -81 -14
-167 -1 -17 -4 -29 -7 -27 -4 2 -10 -8 -14 -23 -3 -15 -15 -47 -26 -70 -11
-24 -17 -49 -13 -55 4 -6 3 -8 -3 -5 -13 8 -26 -20 -16 -35 3 -6 1 -8 -5 -4
-6 4 -21 -24 -38 -72 -15 -43 -33 -79 -40 -79 -7 0 -10 6 -7 14 3 7 2 21 -3
31 -9 22 -11 28 -13 48 0 8 -5 12 -11 9 -5 -3 -7 0 -5 7 3 8 -1 36 -10 63 -8
28 -15 60 -15 73 0 13 -4 21 -8 18 -4 -2 -6 11 -4 30 3 20 -2 41 -9 51 -10 12
-10 15 -1 9 9 -5 12 6 13 46 1 29 3 64 5 78 2 14 5 69 8 123 3 54 7 101 9 105
2 4 5 25 6 47 2 22 6 59 10 81 5 24 4 49 -2 59 -6 12 -6 16 0 12 6 -4 13 13
16 41 4 26 9 63 13 82 3 19 6 41 6 48 1 8 33 29 72 48 39 19 75 39 80 44 20
20 34 9 38 -32z"/>
</g>
</svg>
